<svg width="130" height="22" fill="none" xmlns="http://www.w3.org/2000/svg"><path d="m119.124 16.934-5.403 3.286a.753.753 0 0 1-.831-.034.746.746 0 0 1-.289-.78l1.456-6.154-4.796-4.123a.752.752 0 0 1 .428-1.316l6.303-.517 2.44-5.835a.75.75 0 0 1 1.384 0l2.44 5.835 6.303.517a.746.746 0 0 1 .651.516.746.746 0 0 1-.224.8l-4.795 4.123 1.456 6.155a.754.754 0 0 1-.29.78.747.747 0 0 1-.83.033l-5.403-3.286zM11.124 16.934 5.72 20.22a.75.75 0 0 1-1.12-.813l1.456-6.155L1.26 9.129a.75.75 0 0 1 .428-1.316l6.303-.517 2.44-5.835a.75.75 0 0 1 1.384 0l2.44 5.835 6.303.517a.75.75 0 0 1 .427 1.316l-4.795 4.123 1.456 6.155a.75.75 0 0 1-1.12.813l-5.403-3.286zM38.124 16.934 32.72 20.22a.75.75 0 0 1-1.12-.813l1.456-6.155-4.796-4.123a.75.75 0 0 1 .428-1.316l6.303-.517 2.44-5.835a.75.75 0 0 1 1.384 0l2.44 5.835 6.303.517a.75.75 0 0 1 .427 1.316l-4.795 4.123 1.456 6.155a.75.75 0 0 1-1.12.813l-5.403-3.286zM65.124 16.934 59.72 20.22a.75.75 0 0 1-1.12-.813l1.456-6.155-4.796-4.123a.75.75 0 0 1 .428-1.316l6.303-.517 2.44-5.835a.75.75 0 0 1 1.384 0l2.44 5.835 6.303.517a.75.75 0 0 1 .427 1.316l-4.795 4.123 1.456 6.155a.75.75 0 0 1-1.12.813l-5.403-3.286zM92.124 16.934 86.72 20.22a.75.75 0 0 1-1.12-.813l1.456-6.155-4.796-4.123a.75.75 0 0 1 .428-1.316l6.303-.517 2.44-5.835a.75.75 0 0 1 1.384 0l2.44 5.835 6.303.517a.746.746 0 0 1 .651.516.746.746 0 0 1-.224.8l-4.795 4.123 1.456 6.155a.75.75 0 0 1-1.12.813l-5.403-3.286z" fill="#FC0"/></svg>