<svg width="22" height="22" fill="none" xmlns="http://www.w3.org/2000/svg"><path fill-rule="evenodd" clip-rule="evenodd" d="M7 1a1 1 0 0 1 1 1v1.002C8.297 3 8.618 3 8.964 3h4.072c.346 0 .667 0 .964.002V2a1 1 0 1 1 2 0v1.125c.32.054.621.134.913.256a5 5 0 0 1 2.706 2.706c.212.51.3 1.048.34 1.656.041.592.041 1.32.041 2.221v3.64c0 1.102 0 1.99-.06 2.71-.061.74-.191 1.39-.503 1.99a5 5 0 0 1-2.132 2.133c-.6.312-1.25.442-1.991.503-.72.06-1.608.06-2.71.06H9.396c-1.103 0-1.991 0-2.71-.06-.742-.061-1.392-.191-1.992-.503a5 5 0 0 1-2.132-2.132c-.312-.6-.442-1.25-.503-1.991-.06-.72-.06-1.608-.06-2.71v-3.64c0-.901 0-1.629.04-2.22.042-.61.13-1.148.34-1.657A5 5 0 0 1 5.088 3.38c.292-.122.594-.202.913-.256V2a1 1 0 0 1 1-1zM6 5.175a1.772 1.772 0 0 0-.148.053 3 3 0 0 0-1.624 1.624c-.093.225-.158.52-.192 1.027-.021.311-.03.675-.034 1.121h13.996c-.004-.446-.013-.81-.034-1.12-.034-.507-.099-.803-.192-1.028a3 3 0 0 0-1.624-1.624A1.778 1.778 0 0 0 16 5.175V6a1 1 0 1 1-2 0v-.998C13.706 5 13.376 5 13 5H9c-.376 0-.706 0-1 .002V6a1 1 0 1 1-2 0v-.825zM18 11H4v2.56c0 1.156 0 1.961.053 2.588.05.615.146.968.285 1.235a3 3 0 0 0 1.28 1.28c.266.138.619.233 1.234.284C7.479 19 8.284 19 9.44 19h3.12c1.156 0 1.961 0 2.588-.053.615-.05.968-.146 1.235-.285a2.999 2.999 0 0 0 1.28-1.28c.138-.266.233-.619.284-1.234.052-.627.053-1.432.053-2.588V11zm-6 5a1 1 0 0 1 1-1h2a1 1 0 1 1 0 2h-2a1 1 0 0 1-1-1z" fill="#000"/></svg>