<svg width="22" height="22" fill="none" xmlns="http://www.w3.org/2000/svg"><path d="M5.305 12.25a.534.534 0 1 0 0 1.068H6.73a.534.534 0 1 0 0-1.068H5.305zM14.737 12.784c0-.295.24-.534.534-.534h1.424a.534.534 0 1 1 0 1.068H15.27a.534.534 0 0 1-.534-.534z" fill="#000"/><path fill-rule="evenodd" clip-rule="evenodd" d="M5.768 3a1.246 1.246 0 0 0-1.139.74L2.111 9.403H1.034a.534.534 0 1 0 0 1.067h.89v7.294a1.245 1.245 0 0 0 1.245 1.245h2.136a1.246 1.246 0 0 0 1.246-1.245v-1.601h8.898v1.6a1.245 1.245 0 0 0 1.246 1.246h2.136a1.246 1.246 0 0 0 1.245-1.245V10.47h.89a.534.534 0 1 0 0-1.067H19.89l-2.518-5.665A1.245 1.245 0 0 0 16.232 3H5.768zM18.72 9.404l-2.326-5.231a.178.178 0 0 0-.163-.106H5.768a.178.178 0 0 0-.163.106L3.28 9.404h15.442zM2.99 10.471v4.625H19.01v-4.625H2.992zm13.526 5.693v1.6a.178.178 0 0 0 .178.179h2.136a.178.178 0 0 0 .178-.178v-1.601h-2.492zm-11.034 0H2.992v1.6a.178.178 0 0 0 .177.179h2.136a.178.178 0 0 0 .178-.178v-1.601z" fill="#000"/><path d="M5.305 12.25a.534.534 0 1 0 0 1.068H6.73a.534.534 0 1 0 0-1.068H5.305zM14.737 12.784c0-.295.24-.534.534-.534h1.424a.534.534 0 1 1 0 1.068H15.27a.534.534 0 0 1-.534-.534z" stroke="#000" stroke-width=".5" stroke-linecap="round" stroke-linejoin="round"/><path clip-rule="evenodd" d="M5.768 3a1.246 1.246 0 0 0-1.139.74L2.111 9.403H1.034a.534.534 0 1 0 0 1.067h.89v7.294a1.245 1.245 0 0 0 1.245 1.245h2.136a1.246 1.246 0 0 0 1.246-1.245v-1.601h8.898v1.6a1.245 1.245 0 0 0 1.246 1.246h2.136a1.246 1.246 0 0 0 1.245-1.245V10.47h.89a.534.534 0 1 0 0-1.067H19.89l-2.518-5.665A1.245 1.245 0 0 0 16.232 3H5.768zM18.72 9.404l-2.326-5.231a.178.178 0 0 0-.163-.106H5.768a.178.178 0 0 0-.163.106L3.28 9.404h15.442zM2.99 10.471v4.625H19.01v-4.625H2.992zm13.526 5.693v1.6a.178.178 0 0 0 .178.179h2.136a.178.178 0 0 0 .178-.178v-1.601h-2.492zm-11.034 0H2.992v1.6a.178.178 0 0 0 .177.179h2.136a.178.178 0 0 0 .178-.178v-1.601z" stroke="#000" stroke-width=".5" stroke-linecap="round" stroke-linejoin="round"/></svg>