<svg width="22" height="22" fill="none" xmlns="http://www.w3.org/2000/svg"><path fill-rule="evenodd" clip-rule="evenodd" d="M10.005 1h1.99c1.386 0 2.488 0 3.377.074.91.075 1.686.234 2.394.602a6 6 0 0 1 2.559 2.558c.367.709.526 1.484.601 2.394.074.89.074 1.992.074 3.377v1.99c0 1.386 0 2.488-.074 3.377-.075.91-.233 1.686-.601 2.394a6 6 0 0 1-2.56 2.559c-.707.367-1.483.526-2.393.601-.89.074-1.992.074-3.377.074h-1.99c-1.386 0-2.488 0-3.377-.074-.91-.075-1.685-.233-2.394-.601a6 6 0 0 1-2.558-2.56c-.368-.707-.527-1.483-.602-2.393C1 14.482 1 13.38 1 11.995v-1.99c0-1.386 0-2.488.074-3.377.075-.91.234-1.685.602-2.394a6 6 0 0 1 2.558-2.558c.709-.368 1.484-.527 2.394-.602C7.518 1 8.62 1 10.005 1zM6.794 3.067c-.784.065-1.263.188-1.638.383A4 4 0 0 0 3.45 5.156c-.195.375-.318.854-.383 1.638C3 7.59 3 8.609 3 10.05v1.9c0 1.44 0 2.46.067 3.256.065.785.188 1.263.383 1.638a4 4 0 0 0 1.706 1.706c.375.195.854.318 1.638.383C7.59 19 8.609 19 10.05 19h1.9c1.44 0 2.46 0 3.256-.067.785-.065 1.263-.188 1.638-.383a4 4 0 0 0 1.706-1.706c.195-.375.318-.854.383-1.638C19 14.41 19 13.39 19 11.95v-1.9c0-1.44 0-2.46-.067-3.256-.065-.784-.188-1.263-.383-1.638a4 4 0 0 0-1.706-1.706c-.375-.195-.854-.318-1.638-.383C14.41 3 13.39 3 11.95 3h-1.9c-1.44 0-2.46 0-3.256.067zm4.034 2.69a1 1 0 0 1 1 1v4.968l3.527 1.34a1 1 0 1 1-.71 1.87l-4.172-1.586a1 1 0 0 1-.645-.935V6.757a1 1 0 0 1 1-1z" fill="#000"/></svg>