<svg width="30" height="30" fill="none" xmlns="http://www.w3.org/2000/svg"><path d="M12.937 11.688a1.687 1.687 0 1 0 3.374 0 1.687 1.687 0 0 0-3.374 0zM8.437 13.376a1.687 1.687 0 1 1 0-3.375 1.687 1.687 0 0 1 0 3.375zM19.124 11.688a1.687 1.687 0 1 0 3.374 0 1.687 1.687 0 0 0-3.374 0z" fill="#000"/><path fill-rule="evenodd" clip-rule="evenodd" d="M28.55 27.91a.945.945 0 0 1-.427.09 1.126 1.126 0 0 1-.799-.326l-5.287-5.299H5.625A5.499 5.499 0 0 1 0 16.998V6.378a5.5 5.5 0 0 1 5.625-5.377h17.998a5.501 5.501 0 0 1 5.625 5.378v20.496a1.125 1.125 0 0 1-.697 1.035zM25.957 4.119a3.262 3.262 0 0 0-2.332-.868h-18A3.262 3.262 0 0 0 2.25 6.38v10.619a3.262 3.262 0 0 0 3.375 3.127h16.874a1.123 1.123 0 0 1 .798.326l3.701 3.713V6.379a3.263 3.263 0 0 0-1.042-2.26z" fill="#000"/></svg>