<svg width="22" height="22" fill="none" xmlns="http://www.w3.org/2000/svg"><path fill-rule="evenodd" clip-rule="evenodd" d="M11 2.35a4.545 4.545 0 1 0 0 9.09 4.545 4.545 0 0 0 0-9.09zM8.273 6.895a2.727 2.727 0 1 1 5.454 0 2.727 2.727 0 0 1-5.454 0z" fill="#000"/><path d="M6.416 3.908a.91.91 0 0 1-.61 1.131c-.597.179-1.17.875-1.17 1.856 0 .981.573 1.678 1.17 1.857a.91.91 0 1 1-.521 1.742c-1.494-.447-2.467-1.955-2.467-3.599 0-1.643.973-3.151 2.467-3.598a.91.91 0 0 1 1.131.61zM16.715 3.297a.909.909 0 1 0-.52 1.742c.596.179 1.169.875 1.169 1.856 0 .981-.573 1.678-1.17 1.857a.909.909 0 1 0 .52 1.742c1.495-.447 2.468-1.955 2.468-3.599 0-1.643-.973-3.151-2.467-3.598z" fill="#000"/><path fill-rule="evenodd" clip-rule="evenodd" d="M6.131 13.167c1.32-.586 3.056-.817 4.869-.817 1.813 0 3.55.231 4.869.817 1.345.597 2.404 1.65 2.404 3.274 0 .424-.078.907-.366 1.367-.289.46-.732.81-1.305 1.068-1.1.497-2.86.747-5.602.747-2.742 0-4.503-.25-5.602-.747-.573-.259-1.016-.607-1.305-1.068-.288-.46-.366-.943-.366-1.367 0-1.623 1.06-2.677 2.404-3.274zm.738 1.662c-.958.425-1.324.963-1.324 1.612 0 .203.037.318.089.402.052.083.177.224.513.377.72.325 2.14.585 4.853.585 2.713 0 4.133-.26 4.852-.585.337-.152.462-.294.514-.377.052-.084.088-.199.088-.402 0-.65-.365-1.187-1.323-1.612-.984-.437-2.429-.66-4.131-.66-1.702 0-3.147.223-4.13.66z" fill="#000"/><path d="M17.458 11.946a.91.91 0 0 1 1.219-.41C20.035 12.21 21 13.374 21 15.077a.91.91 0 1 1-1.818 0c0-.867-.432-1.475-1.313-1.913a.91.91 0 0 1-.41-1.218zM4.542 11.946a.91.91 0 0 1-.41 1.218c-.882.438-1.314 1.046-1.314 1.913a.91.91 0 1 1-1.818 0c0-1.703.965-2.867 2.323-3.541a.91.91 0 0 1 1.219.41z" fill="#000"/></svg>