<svg width="30" height="30" viewBox="0 0 30 30" fill="none" xmlns="http://www.w3.org/2000/svg">
<path d="M12.9367 11.6882C12.9367 12.6202 13.6922 13.3756 14.6241 13.3756C15.556 13.3756 16.3115 12.6202 16.3115 11.6882C16.3115 10.7563 15.556 10.0009 14.6241 10.0009C13.6922 10.0009 12.9367 10.7563 12.9367 11.6882Z" fill="black"/>
<path d="M8.43695 13.3756C7.50503 13.3756 6.74956 12.6202 6.74956 11.6882C6.74956 10.7563 7.50503 10.0009 8.43695 10.0009C9.36887 10.0009 10.1243 10.7563 10.1243 11.6882C10.1243 12.6202 9.36887 13.3756 8.43695 13.3756Z" fill="black"/>
<path d="M19.1238 11.6882C19.1238 12.6202 19.8792 13.3756 20.8112 13.3756C21.7431 13.3756 22.4985 12.6202 22.4985 11.6882C22.4985 10.7563 21.7431 10.0009 20.8112 10.0009C19.8792 10.0009 19.1238 10.7563 19.1238 11.6882Z" fill="black"/>
<path fill-rule="evenodd" clip-rule="evenodd" d="M28.5507 27.9097C28.4172 27.9727 28.2708 28.0035 28.1232 27.9997C27.9751 28.0005 27.8284 27.9722 27.6913 27.9162C27.5543 27.8602 27.4296 27.7777 27.3245 27.6735L22.0373 22.375H5.62464C4.9022 22.3915 4.18361 22.2654 3.50991 22.004C2.83621 21.7427 2.22061 21.3511 1.69828 20.8518C1.17594 20.3524 0.757114 19.7551 0.465717 19.0938C0.174322 18.4325 0.0160694 17.7203 0 16.9979V6.37858C0.0160694 5.65613 0.174322 4.94393 0.465717 4.28267C0.757114 3.6214 1.17594 3.02403 1.69828 2.52468C2.22061 2.02533 2.83621 1.63379 3.50991 1.37242C4.18361 1.11106 4.9022 0.984989 5.62464 1.00142H23.6235C24.3459 0.984989 25.0645 1.11106 25.7382 1.37242C26.4119 1.63379 27.0275 2.02533 27.5498 2.52468C28.0722 3.02403 28.491 3.6214 28.7824 4.28267C29.0738 4.94393 29.2321 5.65613 29.2481 6.37858V26.8748C29.247 27.0968 29.1802 27.3136 29.0561 27.4978C28.932 27.682 28.7561 27.8253 28.5507 27.9097ZM25.9561 4.11868C25.3237 3.53268 24.4851 3.22083 23.6235 3.25128H5.62464C4.76304 3.22083 3.92442 3.53268 3.29206 4.11868C2.65969 4.70467 2.28499 5.51716 2.24986 6.37858V16.9979C2.28499 17.8593 2.65969 18.6718 3.29206 19.2578C3.92442 19.8438 4.76304 20.1556 5.62464 20.1252H22.4986C22.6466 20.1243 22.7934 20.1527 22.9304 20.2087C23.0675 20.2647 23.1921 20.3472 23.2973 20.4514L26.9983 24.1637V6.37858C26.9631 5.51716 26.5884 4.70467 25.9561 4.11868Z" fill="black"/>
</svg>
