<svg width="22" height="22" fill="none" xmlns="http://www.w3.org/2000/svg"><path fill-rule="evenodd" clip-rule="evenodd" d="M11.002 5.6a3 3 0 1 0 0 6 3 3 0 0 0 0-6zm-1.8 3a1.8 1.8 0 1 1 3.6 0 1.8 1.8 0 0 1-3.6 0z" fill="#000"/><path fill-rule="evenodd" clip-rule="evenodd" d="m10.507 19.74.495-.34-.495.34a.6.6 0 0 0 .99 0l-.495-.34.495.34.176-.258a424.446 424.446 0 0 0 1.996-2.942c1.158-1.721 2.482-3.715 3.103-4.751l.006-.01a6.168 6.168 0 0 0 .824-3.184 6.6 6.6 0 0 0-13.2-.002 6.168 6.168 0 0 0 .82 3.211c.626 1.028 1.952 3.018 3.112 4.738a570.591 570.591 0 0 0 1.997 2.94l.176.257zM7.184 4.781A5.4 5.4 0 0 1 16.402 8.6v.01c.016.9-.213 1.786-.661 2.566-.604 1.005-1.906 2.968-3.068 4.694a504.2 504.2 0 0 1-1.518 2.242l-.153.225-.154-.225c-.397-.583-.939-1.38-1.52-2.241-1.161-1.723-2.466-3.682-3.077-4.684a4.968 4.968 0 0 1-.65-2.573V8.6a5.4 5.4 0 0 1 1.583-3.818z" fill="#000"/><path d="m11.002 19.4-.495.34m.495-.34-.495.34m.495-.34.495.34m-.495-.34.495.34m-.99 0a.6.6 0 0 0 .99 0m-.99 0-.176-.258a704.856 704.856 0 0 1-1.997-2.94c-1.16-1.72-2.486-3.71-3.112-4.738a6.168 6.168 0 0 1-.82-3.211 6.6 6.6 0 0 1 13.2.002 6.168 6.168 0 0 1-.824 3.185l-.006.009c-.621 1.036-1.945 3.03-3.103 4.751a496.248 496.248 0 0 1-1.996 2.942l-.176.257M11.002 3.2a5.4 5.4 0 0 0-5.4 5.4v.014c-.021.9.203 1.79.649 2.573.611 1.002 1.916 2.962 3.078 4.684.58.86 1.122 1.658 1.52 2.24l.153.226.153-.225a504.2 504.2 0 0 0 1.518-2.242c1.162-1.726 2.464-3.689 3.068-4.694.448-.78.677-1.666.661-2.565V8.6a5.4 5.4 0 0 0-5.4-5.4zm0 3.6a1.8 1.8 0 1 0 0 3.6 1.8 1.8 0 0 0 0-3.6zm-3 1.8a3 3 0 1 1 6 0 3 3 0 0 1-6 0z" stroke="#000" stroke-width=".5" stroke-linecap="round" stroke-linejoin="round"/></svg>