<svg width="30" height="30" fill="none" xmlns="http://www.w3.org/2000/svg"><path fill-rule="evenodd" clip-rule="evenodd" d="M1.001 27.045a.94.94 0 0 1-.58-.19 1 1 0 0 1-.42-.81v-19a1 1 0 0 1 .68-1l9-3c.2-.06.411-.06.61 0l9.71 3 8.7-2.9a1 1 0 0 1 .9.14 1 1 0 0 1 .4.76v19a1 1 0 0 1-.68.95l-9 3a1.06 1.06 0 0 1-.61 0l-9.71-2.9-8.68 2.95a1.19 1.19 0 0 1-.32 0zm10-21.646 8 2.43v16.907l-8.023-2.479a.995.995 0 0 0 .023-.212V5.399zm-2 .03-7 2.336v16.89l7.036-2.345a1 1 0 0 1-.036-.265V5.429zm19 16.946-7 2.336V7.814l7-2.38v16.94z" fill="#000"/></svg>