<svg width="22" height="22" fill="none" xmlns="http://www.w3.org/2000/svg"><path fill-rule="evenodd" clip-rule="evenodd" d="M7.87 3.446c-.639-.471-1.07-.577-1.3-.532-.953.186-1.518.557-2.284 1.322-1.044 1.045-1.551 1.825-1.33 3.008.254 1.361 1.495 3.44 4.918 6.863 3.423 3.422 5.514 4.677 6.883 4.936.635.12 1.118.027 1.551-.187.464-.228.91-.613 1.422-1.147.455-.474.73-.805.923-1.13.184-.31.314-.653.415-1.168.045-.23-.062-.661-.533-1.3-.44-.597-1.06-1.19-1.633-1.673-.379-.319-.964-.339-1.437.015l-1.445 1.082a3.273 3.273 0 0 1-4.275-.314l-.985-.985a3.273 3.273 0 0 1-.314-4.275l1.082-1.445c.354-.473.333-1.059.014-1.437-.483-.573-1.075-1.193-1.672-1.633zM9 1.914c.77.568 1.474 1.317 1.998 1.938.954 1.132.876 2.706.054 3.804L9.97 9.102a1.37 1.37 0 0 0 .136 1.788l.985.985a1.37 1.37 0 0 0 1.788.136l1.445-1.082c1.1-.822 2.673-.9 3.805.054.62.524 1.37 1.227 1.938 1.998.536.727 1.076 1.735.869 2.795-.133.681-.329 1.239-.645 1.773-.308.52-.707.978-1.186 1.477-.555.579-1.187 1.16-1.955 1.538-.799.393-1.701.548-2.747.35-1.993-.378-4.443-2.03-7.875-5.462-3.431-3.43-5.073-5.871-5.444-7.86C.68 5.427 1.806 4.025 2.94 2.89c.937-.937 1.826-1.564 3.265-1.845 1.06-.207 2.068.333 2.795.869z" fill="#000"/></svg>