<svg width="30" height="30" fill="none" xmlns="http://www.w3.org/2000/svg"><path fill-rule="evenodd" clip-rule="evenodd" d="M16.889 0a2.556 2.556 0 1 0 0 5.111 2.556 2.556 0 0 0 0-5.111zm-.556 2.556a.556.556 0 1 1 1.111 0 .556.556 0 0 1-1.11 0z" fill="#000"/><path d="M13.022 23.378a1 1 0 0 0-1.6-1.2L6.756 28.4a1 1 0 0 0 1.6 1.2l4.666-6.222z" fill="#000"/><path d="m14.096 10.118-1.305 7.829a1 1 0 0 0 .28.871l4.552 4.552 3.038 6.077a1 1 0 0 0 1.79-.894l-3.112-6.222a1.001 1.001 0 0 0-.187-.26l-4.303-4.303L16 10.859l3.293 3.293a1 1 0 0 0 .39.241l4.668 1.556a1 1 0 1 0 .632-1.898l-4.443-1.48-4.491-4.492a.995.995 0 0 0-.98-.266l-6.2 1.55a1 1 0 0 0-.59.416l-3.11 4.666a1 1 0 1 0 1.663 1.11L9.73 11.21l4.367-1.092z" fill="#000"/></svg>